# xmcd CD database file
#
# Track frame offsets:
#	150
#	21785
#	28569
#	48080
#	55167
#	64052
#	76412
#	87282
#	93775
#	109362
#	117447
#	127720
#	139800
#	152095
#	157212
#	174567
#	189634
#	202350
#	207817
#	219687
#	244890
#	261427
#	278692
#	289695
#	297145
#	316020
#	327055
#
# Disc length: 4684 seconds
#
# Revision: 6
# Processed by: cddbd v1.5.2PL0 Copyright (c) Steve Scherf et al.
# Submitted via: CDex 1.51
#
DISCID=8c124a1b
DTITLE=Various Artist - Hair OST
DYEAR=2000
DGENRE=Soundtrack
TTITLE0=Aquarius
TTITLE1=Sodomy
TTITLE2=Donna - Hashish
TTITLE3=Colored Spade
TTITLE4=Manchester
TTITLE5=Abie Baby and Fourscore
TTITLE6=I'm Black - Ain't Got No
TTITLE7=Air
TTITLE8=Party Music
TTITLE9=My Conviction
TTITLE10=I Got Life
TTITLE11=Frank Mills
TTITLE12=Hair
TTITLE13=L.B.J.
TTITLE14=Electric Blues - Old Fashioned Melody
TTITLE15=Hare Krishna
TTITLE16=Where Do I Go
TTITLE17=Black Boys
TTITLE18=White Boys
TTITLE19=Walking In Space
TTITLE20=Easy To Be Hard
TTITLE21=3-5-0-0
TTITLE22=Good Morning Starshine
TTITLE23=What A Piece Of Work Is Man
TTITLE24=Somebody To Love
TTITLE25=Don't Put It Down
TTITLE26=The Flesh Failures - Let The Sunshine In
EXTD=1979 Double LP YEAR: 2000
EXTT0=
EXTT1=
EXTT2=
EXTT3=
EXTT4=
EXTT5=
EXTT6=
EXTT7=
EXTT8=
EXTT9=
EXTT10=
EXTT11=
EXTT12=
EXTT13=
EXTT14=
EXTT15=
EXTT16=
EXTT17=
EXTT18=
EXTT19=
EXTT20=
EXTT21=
EXTT22=
EXTT23=
EXTT24=
EXTT25=
EXTT26=
PLAYORDER=
